<?xml version="1.0" encoding="UTF-8" standalone="no"?>
<!-- Created with Inkscape (http://www.inkscape.org/) -->

<svg
   version="1.1"
   id="svg11691"
   xml:space="preserve"
   width="682.66669"
   height="682.66669"
   viewBox="0 0 682.66669 682.66669"
   xmlns="http://www.w3.org/2000/svg"
   xmlns:svg="http://www.w3.org/2000/svg"><defs
     id="defs11695"><clipPath
       clipPathUnits="userSpaceOnUse"
       id="clipPath11705"><path
         d="M 0,512 H 512 V 0 H 0 Z"
         id="path11703" /></clipPath></defs><g
     id="g11697"
     transform="matrix(1.3333333,0,0,-1.3333333,0,682.66667)"><g
       id="g11699"><g
         id="g11701"
         clip-path="url(#clipPath11705)"><g
           id="g11707"
           transform="translate(378.3291,219.4033)"><path
             d="m 0,0 h 61.115 v -28.113 c 0,-6.752 -5.527,-12.256 -12.245,-12.256 h -198.983 c 0,17.674 0,26.667 13.521,26.667 l 26.929,0.028 C -92.712,-13.646 -81.6,-9.305 -75.392,0 Z"
             style="fill:#6f6571;fill-opacity:1;fill-rule:evenodd;stroke:none"
             id="path11709" /></g><g
           id="g11711"
           transform="translate(252.2158,179.0342)"><path
             d="m 0,0 h 174.983 c 10.261,-17.872 18.51,-39.348 11.396,-80.427 -11.906,40.512 -132.832,24.341 -145.248,-22.411 H -92.296 c -5.046,11.433 -9.808,22.724 -13.975,34.128 h 37.616 C 7.427,-40 -17.036,-52.795 0,0"
             style="fill:#ffe07d;fill-opacity:1;fill-rule:evenodd;stroke:none"
             id="path11713" /></g><g
           id="g11715"
           transform="translate(241.4155,288.8516)"><path
             d="m 0,0 c 2.608,-13.73 6.151,-27.263 10.12,-38.78 l 38.464,-15.072 42.89,15.072 C 89.972,42.384 59.641,81.307 33.846,93.902 c -9.298,7.079 -18.822,9.746 -18.822,9.746 0,0 -12.529,-20.044 -13.181,-20.044 C -2.976,72.143 -4.791,57.192 -4.479,41.05 Z"
             style="fill:#eceaec;fill-opacity:1;fill-rule:evenodd;stroke:none"
             id="path11717" /></g><g
           id="g11719"
           transform="translate(332.8896,250.0713)"><path
             d="m 0,0 h -81.354 c -18.737,-2.043 -41.783,-16.312 -41.783,-60.512 v -46.327 h 42.463 v 35.802 c 0,17.674 0,26.667 13.522,26.667 l 26.928,0.028 c 16.952,0.029 28.064,4.369 34.272,13.674 C -1.162,-23.49 0.681,-13.362 0,0"
             style="fill:#ff8086;fill-opacity:1;fill-rule:evenodd;stroke:none"
             id="path11721" /></g><g
           id="g11723"
           transform="translate(332.8896,250.0713)"><path
             d="m 0,0 c -1.502,81.164 -31.833,120.087 -57.628,132.683 -3.827,-2.696 -8.079,-4.909 -12.756,-6.554 C -47.537,108.853 -24.633,70.242 -23.329,0 Z"
             style="fill:#dad8db;fill-opacity:1;fill-rule:evenodd;stroke:none"
             id="path11725" /></g><g
           id="g11727"
           transform="translate(332.8896,250.0713)"><path
             d="m 0,0 h -23.329 c 0.681,-13.362 -1.162,-23.49 -5.952,-30.668 -3.912,-5.872 -9.809,-10.837 -17.887,-13.674 h 6.944 c 16.952,0.029 28.064,4.369 34.272,13.674 C -1.162,-23.49 0.681,-13.362 0,0"
             style="fill:#f76672;fill-opacity:1;fill-rule:evenodd;stroke:none"
             id="path11729" /></g><g
           id="g11731"
           transform="translate(241.4155,288.8516)"><path
             d="M 0,0 C 2.608,-13.73 6.151,-27.263 10.12,-38.78 H 91.474 C 89.972,42.384 59.641,81.307 33.846,93.902 M 1.843,83.604 C -2.976,72.143 -4.791,57.192 -4.479,41.05"
             style="fill:none;stroke:#000000;stroke-width:15;stroke-linecap:round;stroke-linejoin:round;stroke-miterlimit:10;stroke-dasharray:none;stroke-opacity:1"
             id="path11733" /></g><g
           id="g11735"
           transform="translate(378.3291,282.9229)"><path
             d="m 0,0 h 126.171 v -43.831 c 0,-10.837 -8.844,-19.689 -19.673,-19.689 H 61.115 L 34.045,-77.193 0,-63.52 Z"
             style="fill:#ffe07d;fill-opacity:1;fill-rule:evenodd;stroke:none"
             id="path11737" /></g><g
           id="g11739"
           transform="translate(398.002,346.5264)"><path
             d="m 0,0 h 86.825 c 10.829,0 19.673,-8.852 19.673,-19.688 V -52.256 H -19.673 v 32.568 C -19.673,-8.852 -10.828,0 0,0"
             style="fill:#ffe07d;fill-opacity:1;fill-rule:evenodd;stroke:none"
             id="path11741" /></g><path
           d="M 378.329,304.086 H 504.5 V 273.135 H 378.329 Z"
           style="fill:#ff8086;fill-opacity:1;fill-rule:evenodd;stroke:none"
           id="path11743" /><g
           id="g11745"
           transform="translate(478.166,304.0859)"><path
             d="m 0,0 h 16.157 10.177 v 22.752 c 0,7.404 -4.139,13.873 -10.177,17.22 -2.834,1.56 -6.065,2.468 -9.496,2.468 H -19.673 C -8.844,42.44 0,33.589 0,22.752 Z"
             style="fill:#ffc269;fill-opacity:1;fill-rule:evenodd;stroke:none"
             id="path11747" /></g><g
           id="g11749"
           transform="translate(478.166,273.1348)"><path
             d="m 0,0 h 16.157 10.177 v 9.788 11.348 9.815 H 16.157 0 V 21.136 9.788 Z"
             style="fill:#f76672;fill-opacity:1;fill-rule:evenodd;stroke:none"
             id="path11751" /></g><g
           id="g11753"
           transform="translate(478.166,273.1348)"><path
             d="M 0,0 V -34.043 C 0,-44.88 -8.844,-53.731 -19.673,-53.731 H 6.661 c 3.431,0 6.662,0.879 9.496,2.44 6.038,3.376 10.177,9.844 10.177,17.248 L 26.334,0 H 16.157 Z"
             style="fill:#ffc269;fill-opacity:1;fill-rule:evenodd;stroke:none"
             id="path11755" /></g><g
           id="g11757"
           transform="translate(378.3291,219.4033)"><path
             d="m 0,0 h 106.498 c 10.829,0 19.673,8.852 19.673,19.688 v 87.747 c 0,10.836 -8.844,19.688 -19.673,19.688 H 19.673 C 8.845,127.123 0,118.271 0,107.435 Z"
             style="fill:none;stroke:#000000;stroke-width:15;stroke-linecap:round;stroke-linejoin:round;stroke-miterlimit:10;stroke-dasharray:none;stroke-opacity:1"
             id="path11759" /></g><path
           d="M 378.329,273.135 H 504.5 v 30.951 H 378.329 Z"
           style="fill:none;stroke:#000000;stroke-width:15;stroke-linecap:round;stroke-linejoin:round;stroke-miterlimit:10;stroke-dasharray:none;stroke-opacity:1"
           id="path11761" /><g
           id="g11763"
           transform="translate(293.3467,76.1963)"><path
             d="m 0,0 c 0,41.958 33.25,75.377 74.268,75.377 33.364,0 61.597,-22.128 70.98,-52.966 1.927,-6.326 3.061,-13.05 3.26,-20.028 C 148.593,-0.341 146.722,0 144.171,0 96.123,0 48.047,0.028 0,0"
             style="fill:#ff8086;fill-opacity:1;fill-rule:evenodd;stroke:none"
             id="path11765" /></g><g
           id="g11767"
           transform="translate(312.0273,76.1963)"><path
             d="M 0,0 H 113.046 C 111.43,-30.469 86.74,-54.696 56.522,-54.696 26.306,-54.696 1.615,-30.469 0,0"
             style="fill:#6f6571;fill-opacity:1;fill-rule:evenodd;stroke:none"
             id="path11769" /></g><g
           id="g11771"
           transform="translate(24.9614,88.2529)"><path
             d="M 0,0 97.257,-22.384 C 91.078,-49.249 64.29,-66.044 37.446,-59.859 10.573,-53.675 -6.18,-26.866 0,0"
             style="fill:#6f6571;fill-opacity:1;fill-rule:evenodd;stroke:none"
             id="path11773" /></g><g
           id="g11775"
           transform="translate(17.6763,115.5156)"><path
             d="m 0,0 c 13.748,20 37.616,31.604 62.561,29.106 43.994,-9.304 58.309,-35.602 61.172,-68.397 -0.057,-4.454 -0.539,-8.937 -1.503,-13.419 -0.283,-1.248 -1.105,-0.737 -2.466,-0.426 l -15.222,3.49 L 7.285,-27.263 0,-25.589 -10.176,-23.234 C -8.22,-14.667 -4.706,-6.837 0,0"
             style="fill:#eceaec;fill-opacity:1;fill-rule:evenodd;stroke:none"
             id="path11777" /></g><g
           id="g11779"
           transform="translate(80.1523,144.7363)"><path
             d="m 0,0 39.288,135.945 17.689,7.915 19.785,-7.915 C 50.769,63.887 58.025,13.589 75.572,-34.412 79.767,-45.816 84.529,-57.107 89.546,-68.54 H 61.285 Z"
             style="fill:#ff8086;fill-opacity:1;fill-rule:evenodd;stroke:none"
             id="path11781" /></g><g
           id="g11783"
           transform="translate(201.8154,433.1094)"><path
             d="M 0,0 46.092,9.815 C 50.769,9.39 64.148,-1.845 64.148,-8.88 L 54.34,-58.753 c -4.081,-1.22 -8.419,-1.9 -12.897,-1.9 -24.548,0 -44.447,19.943 -44.447,44.51 0,5.703 1.048,11.15 3.004,16.143"
             style="fill:#ffece4;fill-opacity:1;fill-rule:evenodd;stroke:none"
             id="path11785" /></g><g
           id="g11787"
           transform="translate(186.9336,433.1094)"><path
             d="m 0,0 c 0,31.717 25.115,57.391 56.126,57.391 31.012,0 56.126,-25.674 56.126,-57.391 0,-20.937 -8.504,-39.547 -23.924,-50.355 -5.499,-3.887 -11.906,-6.752 -19.106,-8.398 V -8.88 c 0,7.035 -3.571,8.454 -8.248,8.88 L 14.882,0 Z"
             style="fill:#ff8086;fill-opacity:1;fill-rule:evenodd;stroke:none"
             id="path11789" /></g><g
           id="g11791"
           transform="translate(213.6929,482.0176)"><path
             d="m 0,0 c 8.532,5.391 18.595,8.482 29.367,8.482 31.011,0 56.126,-25.673 56.126,-57.39 0,-20.937 -8.504,-39.547 -23.924,-50.356 -3.912,-2.752 -8.249,-4.993 -13.012,-6.638 11.396,11.546 17.575,28.114 17.575,46.383 0,33.135 -26.277,60.001 -58.677,60.001 C 4.932,0.482 2.438,0.341 0,0"
             style="fill:#f76672;fill-opacity:1;fill-rule:evenodd;stroke:none"
             id="path11793" /></g><g
           id="g11795"
           transform="translate(209.7524,143.2324)"><path
             d="m 0,0 h 42.463 v -26.752 c 0,-5.73 -3.118,-6.156 -7.71,-6.156 H -26.192 C -27.411,-6.071 -11.168,0 0,0"
             style="fill:#6f6571;fill-opacity:1;fill-rule:evenodd;stroke:none"
             id="path11797" /></g><g
           id="g11799"
           transform="translate(155.7241,110.3242)"><path
             d="m 0,0 c -17.546,48.001 -24.803,98.299 1.19,170.357 h -14.569 -0.171 -5.244 C -44.788,98.299 -37.559,48.001 -19.984,0 c 4.167,-11.404 8.929,-22.695 13.975,-34.128 h 10.204 9.78 C 8.958,-22.695 4.195,-11.404 0,0"
             style="fill:#f76672;fill-opacity:1;fill-rule:evenodd;stroke:none"
             id="path11801" /></g><g
           id="g11803"
           transform="translate(141.4092,76.2246)"><path
             d="m 0,0 -61.172,68.397 c -6.321,0.624 -12.586,0.37 -18.623,-0.737 l 58.79,-65.731 c -0.057,-3.83 -0.425,-7.717 -1.162,-11.603 l 2.976,-0.681 15.222,-3.49 c 1.361,-0.311 2.183,-0.822 2.467,0.426 C -0.539,-8.937 -0.057,-4.454 0,0"
             style="fill:#dad8db;fill-opacity:1;fill-rule:evenodd;stroke:none"
             id="path11805" /></g><g
           id="g11807"
           transform="translate(427.1992,179.0342)"><path
             d="M 0,0 H -174.983 V -15.404 H -31.21 c 11.707,0 17.264,-5.05 21.827,-15.291 3.941,-8.88 4.026,-11.774 5.811,-22.497 6.718,-7.802 11.878,-17.05 14.968,-27.235 C 18.51,-39.348 10.261,-17.872 0,0"
             style="fill:#ffc269;fill-opacity:1;fill-rule:evenodd;stroke:none"
             id="path11809" /></g><g
           id="g11811"
           transform="translate(423.627,125.8418)"><path
             d="m 0,0 c -13.606,15.802 -33.647,25.731 -56.013,25.731 -5.612,0 -11.054,-0.624 -16.299,-1.788 33.478,-7.574 56.892,-37.134 57.913,-71.206 0.056,-1.873 -0.794,-2.298 -2.155,-2.383 h 18 12.445 c 2.55,0 4.421,-0.34 4.337,2.383 -0.2,6.979 -1.333,13.702 -3.26,20.029 -0.058,0.198 -0.114,0.369 -0.171,0.539 v 0.028 C 11.679,-16.709 6.605,-7.659 0,0"
             style="fill:#f76672;fill-opacity:1;fill-rule:evenodd;stroke:none"
             id="path11813" /></g><g
           id="g11815"
           transform="translate(119.2422,66.5508)"><path
             d="m 0,0 -94.281,21.702 c -1.049,-4.454 -1.417,-8.936 -1.247,-13.306 l 74.835,-17.219 2.948,-0.681 c -2.778,-12.199 -9.836,-22.327 -19.219,-29.164 19.134,3.376 35.32,17.845 39.94,37.986 z"
             style="fill:#5d5360;fill-opacity:1;fill-rule:evenodd;stroke:none"
             id="path11817" /></g><g
           id="g11819"
           transform="translate(407.0732,76.1963)"><path
             d="m 0,0 h -95.046 c 0.312,-5.958 1.53,-11.688 3.486,-17.051 h 66.218 18 C -8.051,-30.384 -13.153,-42.497 -21.203,-51.944 0.651,-44.767 16.725,-24.369 18,0 Z"
             style="fill:#5d5360;fill-opacity:1;fill-rule:evenodd;stroke:none"
             id="path11821" /></g><g
           id="g11823"
           transform="translate(439.4443,191.29)"><path
             d="M 0,0 V 28.113 H -38.409 V 0 c 0,-6.752 -5.528,-12.256 -12.246,-12.256 h 38.41 C -5.527,-12.256 0,-6.752 0,0"
             style="fill:#5d5360;fill-opacity:1;fill-rule:evenodd;stroke:none"
             id="path11825" /></g><g
           id="g11827"
           transform="translate(199.0376,421.7334)"><path
             d="m 0,0 h 37.871 c 4.677,-0.426 8.249,-1.873 8.249,-8.908 v -40.313 c 3.798,0.17 7.484,0.794 10.998,1.844 V 2.496 c 0,7.035 -3.571,8.454 -8.248,8.88 H 2.778 C 1.389,7.801 0.425,3.972 0,0"
             style="fill:#ffddce;fill-opacity:1;fill-rule:evenodd;stroke:none"
             id="path11829" /></g><g
           id="g11831"
           transform="translate(243.0596,490.5)"><path
             d="M 0,0 C -31.011,0 -56.126,-25.674 -56.126,-57.391 H 4.848 c 4.677,-0.425 8.248,-1.844 8.248,-8.88 v -49.873 c 27.383,6.242 43.03,30.327 43.03,58.753 C 56.126,-25.674 31.012,0 0,0 Z"
             style="fill:none;stroke:#000000;stroke-width:15;stroke-linecap:round;stroke-linejoin:round;stroke-miterlimit:10;stroke-dasharray:none;stroke-opacity:1"
             id="path11833" /></g><g
           id="g11835"
           transform="translate(201.8154,433.1094)"><path
             d="m 0,0 c -1.956,-4.993 -3.004,-10.44 -3.004,-16.143 0,-24.567 19.899,-44.51 44.447,-44.51 4.478,0 8.816,0.68 12.897,1.9"
             style="fill:none;stroke:#000000;stroke-width:15;stroke-linecap:round;stroke-linejoin:round;stroke-miterlimit:10;stroke-dasharray:none;stroke-opacity:1"
             id="path11837" /></g><g
           id="g11839"
           transform="translate(111.2485,323.4902)"><path
             d="m 0,0 53.036,-17.532 c 2.608,-2.326 -0.34,-26.043 -2.098,-25.277 H 8.192 -10.715 V -3.773 C -10.715,3.915 -6.718,2.213 0,0"
             style="fill:#ffe07d;fill-opacity:1;fill-rule:evenodd;stroke:none"
             id="path11841" /></g><g
           id="g11843"
           transform="translate(189.0029,280.6816)"><path
             d="m 0,0 h -4.45 -22.366 c -14.4,0 -14.825,23.887 2.098,25.276 L 0,27.263 6.633,13.22 Z"
             style="fill:#ffece4;fill-opacity:1;fill-rule:evenodd;stroke:none"
             id="path11845" /></g><g
           id="g11847"
           transform="translate(236.937,329.9014)"><path
             d="M 0,0 8.873,7.632 C 31.096,26.781 59.188,-5.531 29.48,-24.822 L 4.479,-41.05 -8.107,-49.22 h -39.827 v 27.263 l 24.747,2.014 z"
             style="fill:#ff8086;fill-opacity:1;fill-rule:evenodd;stroke:none"
             id="path11849" /></g><g
           id="g11851"
           transform="translate(189.0029,280.6816)"><path
             d="m 0,0 v 13.22 h -5.301 -2.863 -4.479 -22.365 c -0.85,0 -1.644,0.056 -2.409,0.226 C -38.239,6.865 -34.526,0 -26.816,0 H -4.45 Z"
             style="fill:#ffddce;fill-opacity:1;fill-rule:evenodd;stroke:none"
             id="path11853" /></g><g
           id="g11855"
           transform="translate(266.417,305.0791)"><path
             d="M 0,0 C 17.972,11.688 14.797,28.113 4.564,35.035 5.386,27.943 2.013,19.802 -8.191,13.191 l -19.475,-12.624 -5.499,-3.603 -12.586,-8.142 h -31.663 v -13.219 h 39.827 l 12.586,8.169 z"
             style="fill:#f76672;fill-opacity:1;fill-rule:evenodd;stroke:none"
             id="path11857" /></g><g
           id="g11859"
           transform="translate(164.2847,305.958)"><path
             d="m 0,0 -21.345,7.036 c -7.143,-7.66 -10.601,-22.582 -6.009,-32.312 h 19.984 5.272 c -7.71,0 -11.423,6.865 -10.601,13.446 C -11.962,-6.128 -7.852,-0.652 0,0"
             style="fill:#ffc269;fill-opacity:1;fill-rule:evenodd;stroke:none"
             id="path11861" /></g><g
           id="g11863"
           transform="translate(245.8096,337.5332)"><path
             d="m 0,0 -32.06,-27.575 -24.662,-1.986 -24.803,-2.014 c -16.923,-1.39 -16.497,-25.277 -2.098,-25.277 h 66.644 l 37.586,24.398 C 50.315,-13.163 22.224,19.149 0,0 Z"
             style="fill:none;stroke:#000000;stroke-width:15;stroke-linecap:round;stroke-linejoin:round;stroke-miterlimit:10;stroke-dasharray:none;stroke-opacity:1"
             id="path11865" /></g><g
           id="g11867"
           transform="translate(162.187,280.6816)"><path
             d="m 0,0 h -61.654 v 39.035 c 0,7.689 3.997,5.986 10.716,3.774 L 2.098,25.276 C -14.825,23.887 -14.4,0 0,0 Z"
             style="fill:none;stroke:#000000;stroke-width:15;stroke-linecap:round;stroke-linejoin:round;stroke-miterlimit:10;stroke-dasharray:none;stroke-opacity:1"
             id="path11869" /></g><g
           id="g11871"
           transform="translate(189.0879,280.6816)"><path
             d="M 0,0 V 27.291"
             style="fill:none;stroke:#000000;stroke-width:15;stroke-linecap:round;stroke-linejoin:round;stroke-miterlimit:10;stroke-dasharray:none;stroke-opacity:1"
             id="path11873" /></g><g
           id="g11875"
           transform="translate(352.5342,179.0342)"><path
             d="M 0,0 H 74.665 C 81.383,0 86.91,5.504 86.91,12.256 V 40.369 H -25.597 M -100.318,0 h 66.699"
             style="fill:none;stroke:#000000;stroke-width:15;stroke-linecap:round;stroke-linejoin:round;stroke-miterlimit:10;stroke-dasharray:none;stroke-opacity:1"
             id="path11877" /></g><g
           id="g11879"
           transform="translate(62.4072,28.3936)"><path
             d="M 0,0 C -26.873,6.185 -43.625,32.993 -37.446,59.859 L 59.811,37.476 C 53.632,10.61 26.844,-6.185 0,0 Z"
             style="fill:none;stroke:#000000;stroke-width:15;stroke-linecap:round;stroke-linejoin:round;stroke-miterlimit:10;stroke-dasharray:none;stroke-opacity:1"
             id="path11881" /></g><g
           id="g11883"
           transform="translate(102.9712,223.7725)"><path
             d="M 0,0 16.469,56.909 H 53.943 C 21.77,-32.284 40.536,-88.144 66.728,-147.576 H 38.466 m -60.803,69.617 12.671,43.774"
             style="fill:none;stroke:#000000;stroke-width:15;stroke-linecap:round;stroke-linejoin:round;stroke-miterlimit:10;stroke-dasharray:none;stroke-opacity:1"
             id="path11885" /></g><g
           id="g11887"
           transform="translate(80.2373,144.6221)"><path
             d="m 0,0 c -33.478,3.348 -64.999,-18.667 -72.737,-52.341 l 129.94,-29.901 c 1.361,-0.312 2.183,-0.822 2.466,0.426 0.964,4.482 1.446,8.964 1.503,13.419 z"
             style="fill:none;stroke:#000000;stroke-width:15;stroke-linecap:round;stroke-linejoin:round;stroke-miterlimit:10;stroke-dasharray:none;stroke-opacity:1"
             id="path11889" /></g><g
           id="g11891"
           transform="translate(293.3467,76.1963)"><path
             d="m 0,0 -123.648,0.028 m 257.501,102.81 c 10.26,-17.872 18.509,-39.348 11.395,-80.427"
             style="fill:none;stroke:#000000;stroke-width:15;stroke-linecap:round;stroke-linejoin:round;stroke-miterlimit:10;stroke-dasharray:none;stroke-opacity:1"
             id="path11893" /></g><g
           id="g11895"
           transform="translate(367.6143,151.5732)"><path
             d="M 0,0 C -41.018,0 -74.268,-33.419 -74.268,-75.377 H 69.903 c 2.551,0 4.422,-0.341 4.337,2.383 C 73.021,-32.171 40.252,0 0,0 Z"
             style="fill:none;stroke:#000000;stroke-width:15;stroke-linecap:round;stroke-linejoin:round;stroke-miterlimit:10;stroke-dasharray:none;stroke-opacity:1"
             id="path11897" /></g><g
           id="g11899"
           transform="translate(312.0273,76.1963)"><path
             d="m 0,0 c 1.615,-30.469 26.306,-54.696 56.522,-54.696 30.218,0 54.908,24.227 56.524,54.696 z"
             style="fill:none;stroke:#000000;stroke-width:15;stroke-linecap:round;stroke-linejoin:round;stroke-miterlimit:10;stroke-dasharray:none;stroke-opacity:1"
             id="path11901" /></g><g
           id="g11903"
           transform="translate(183.5605,110.3242)"><path
             d="M 0,0 H -27.836"
             style="fill:none;stroke:#000000;stroke-width:15;stroke-linecap:round;stroke-linejoin:round;stroke-miterlimit:10;stroke-dasharray:none;stroke-opacity:1"
             id="path11905" /></g><g
           id="g11907"
           transform="translate(209.7524,143.2324)"><path
             d="m 0,0 v 46.327 c 0,44.199 23.046,58.469 41.783,60.512 h 81.354 C 124.697,76.171 112.933,62.525 82.914,62.497 L 55.985,62.469 c -13.522,0 -13.522,-8.993 -13.522,-26.667 V 0"
             style="fill:none;stroke:#000000;stroke-width:15;stroke-linecap:round;stroke-linejoin:round;stroke-miterlimit:10;stroke-dasharray:none;stroke-opacity:1"
             id="path11909" /></g><g
           id="g11911"
           transform="translate(183.5605,110.3242)"><path
             d="M 0,0 C -1.219,26.837 15.023,32.908 26.192,32.908 H 68.655 V 6.156 C 68.655,0.426 65.537,0 60.945,0 Z"
             style="fill:none;stroke:#000000;stroke-width:15;stroke-linecap:round;stroke-linejoin:round;stroke-miterlimit:10;stroke-dasharray:none;stroke-opacity:1"
             id="path11913" /></g></g></g></g></svg>
