<?xml version="1.0" encoding="UTF-8" standalone="no"?>
<svg
   xmlns:dc="http://purl.org/dc/elements/1.1/"
   xmlns:cc="http://creativecommons.org/ns#"
   xmlns:rdf="http://www.w3.org/1999/02/22-rdf-syntax-ns#"
   xmlns:svg="http://www.w3.org/2000/svg"
   xmlns="http://www.w3.org/2000/svg"
   xmlns:sodipodi="http://sodipodi.sourceforge.net/DTD/sodipodi-0.dtd"
   xmlns:inkscape="http://www.inkscape.org/namespaces/inkscape"
   width="210mm"
   height="297mm"
   viewBox="0 0 210 297"
   version="1.1"
   id="svg8"
   inkscape:version="1.0 (4035a4fb49, 2020-05-01)"
   sodipodi:docname="cocinerito.svg">
  <defs
     id="defs2" />
  <sodipodi:namedview
     id="base"
     pagecolor="#ffffff"
     bordercolor="#666666"
     borderopacity="1.0"
     inkscape:pageopacity="0.0"
     inkscape:pageshadow="2"
     inkscape:zoom="0.98994949"
     inkscape:cx="493.40718"
     inkscape:cy="293.99293"
     inkscape:document-units="mm"
     inkscape:current-layer="g1322"
     inkscape:document-rotation="0"
     showgrid="false"
     inkscape:window-width="1920"
     inkscape:window-height="1017"
     inkscape:window-x="-8"
     inkscape:window-y="-8"
     inkscape:window-maximized="1" />
  <metadata
     id="metadata5">
    <rdf:RDF>
      <cc:Work
         rdf:about="">
        <dc:format>image/svg+xml</dc:format>
        <dc:type
           rdf:resource="http://purl.org/dc/dcmitype/StillImage" />
        <dc:title />
      </cc:Work>
    </rdf:RDF>
  </metadata>
  <g
     style="display:inline"
     id="g1322"
     inkscape:groupmode="layer"
     inkscape:label="color">
    <g
       transform="translate(-200.40629,3.0428038)"
       id="g1270"
       style="fill:#ff0000;stroke-width:0.4;stroke-miterlimit:4;stroke-dasharray:none">
      <text
         xml:space="preserve"
         style="font-style:normal;font-variant:normal;font-weight:normal;font-stretch:normal;font-size:25.526px;line-height:1.25;font-family:'Cooper Black';-inkscape-font-specification:'Cooper Black, ';fill:#ff0000;fill-opacity:1;stroke:none;stroke-width:0.4;stroke-miterlimit:4;stroke-dasharray:none;stroke-opacity:1"
         x="340.49014"
         y="104.36442"
         id="text1256"><tspan
           id="tspan1254"
           x="340.49014"
           y="104.36442"
           style="font-style:normal;font-variant:normal;font-weight:normal;font-stretch:normal;font-family:'Cooper Black';-inkscape-font-specification:'Cooper Black, ';fill:#ff0000;fill-opacity:1;stroke:none;stroke-width:0.4;stroke-miterlimit:4;stroke-dasharray:none;stroke-opacity:1"
           sodipodi:role="line">69</tspan></text>
      <path
         id="path1258"
         style="fill:#ff0000;fill-opacity:1;stroke:none;stroke-width:0.4;stroke-miterlimit:4;stroke-dasharray:none;stroke-opacity:1"
         d="m 356.42932,70.681693 a 8.3627234,8.3627234 0 0 0 -8.36073,8.362799 8.3627234,8.3627234 0 0 0 8.36282,8.362278 8.3627234,8.3627234 0 0 0 8.36279,-8.362278 8.3627234,8.3627234 0 0 0 -8.36279,-8.362799 8.3627234,8.3627234 0 0 0 -0.002,0 z m -0.0367,6.709154 a 1.6536458,1.6536458 0 0 1 0.0388,0 1.6536458,1.6536458 0 0 1 1.65364,1.653645 1.6536458,1.6536458 0 0 1 -1.65364,1.653646 1.6536458,1.6536458 0 0 1 -1.65365,-1.653646 1.6536458,1.6536458 0 0 1 1.61489,-1.653645 z" />
      <path
         style="fill:#ff0000;fill-opacity:1;stroke:none;stroke-width:0.4;stroke-linecap:butt;stroke-linejoin:miter;stroke-miterlimit:4;stroke-dasharray:none;stroke-opacity:1"
         d="m 334.41444,109.42411 c 14.40763,3.70368 29.0284,4.10358 43.93972,0 z"
         id="path1260"
         sodipodi:nodetypes="ccc" />
      <path
         style="fill:#ff0000;fill-opacity:1;stroke:none;stroke-width:0.4;stroke-linecap:butt;stroke-linejoin:miter;stroke-miterlimit:4;stroke-dasharray:none;stroke-opacity:1"
         d="m 353.40773,120.47991 c -2.20605,-3.14825 -7.35903,-8.52744 -10.8668,-5.38616 -0.93112,1.0705 -1.19654,2.76927 -0.75595,3.96875 0.61038,1.66173 7.69705,7.80352 8.74259,5.29118 0.27659,-0.95806 -2.3368,-2.09035 -3.73439,-2.92883 -1.37198,-0.8441 -2.5848,-2.26753 -2.04108,-3.28839 2.19986,-4.13036 11.32315,6.22489 8.65563,2.34345 z"
         id="path1262"
         sodipodi:nodetypes="ccsccsc" />
      <path
         style="fill:#ff0000;fill-opacity:1;stroke:none;stroke-width:0.4;stroke-linecap:butt;stroke-linejoin:miter;stroke-miterlimit:4;stroke-dasharray:none;stroke-opacity:1"
         d="m 353.12426,117.4561 c 2.51588,2.83516 3.98666,2.08027 6.94531,0.23623 2.11273,-1.51824 6.00621,-2.0406 6.94531,0.0945 0.94011,3.02993 -2.62505,4.2717 -4.96093,4.72471 0,0 1.64324,0.61753 2.50409,0.75595 4.96151,0.78901 7.36965,-4.71472 5.10271,-8.12644 -1.16247,-1.7495 -3.83227,-2.27347 -5.71691,-2.03162 -1.84588,0.32916 -3.25646,1.65182 -4.58295,2.69308 -1.69854,1.21176 -4.01172,2.13049 -5.90587,1.74815 -0.11144,-0.027 -0.33076,-0.0946 -0.33076,-0.0946 z"
         id="path1264"
         sodipodi:nodetypes="cccccsccccc" />
      <path
         style="fill:#ff0000;fill-opacity:1;stroke:none;stroke-width:0.4;stroke-linecap:butt;stroke-linejoin:miter;stroke-miterlimit:4;stroke-dasharray:none;stroke-opacity:1"
         d="M 345.28125,64.822916 C 361.19748,53.375984 394.03457,71.751534 374.5744,105.07738 387.30728,69.582972 360.51993,60.238254 345.28125,64.822916 Z"
         id="path1266"
         sodipodi:nodetypes="ccc" />
      <path
         style="fill:#ff0000;fill-opacity:1;stroke:none;stroke-width:0.4;stroke-linecap:butt;stroke-linejoin:miter;stroke-miterlimit:4;stroke-dasharray:none;stroke-opacity:1"
         d="m 378.99199,67.445125 c 0,0 -0.6313,0.409754 -0.99218,0.448847 -0.52819,0.05722 -1.0824,-0.09627 -1.55914,-0.33073 -0.43611,-0.214478 -0.84366,-0.538636 -1.11033,-0.94494 -2.12229,-3.025041 1.06696,-7.396181 4.72472,-5.693265 3.48849,1.624114 3.80858,6.490835 0.96856,8.528087 -0.94831,0.680259 -2.129,0.951472 -3.21281,0.968563 -0.47659,0.0075 -1.4174,-0.188987 -1.4174,-0.188987 1.63329,-0.417649 2.79545,-1.583531 2.59861,-2.787575 z"
         id="path1268"
         sodipodi:nodetypes="caacsssccc" />
    </g>
    <g
       id="g958">
      <path
         id="path1274"
         style="fill:#ff0000;fill-opacity:1;stroke:none;stroke-width:0.4;stroke-linecap:butt;stroke-linejoin:miter;stroke-miterlimit:4;stroke-dasharray:none;stroke-opacity:1"
         d="M 115.53607,95.324181 C 103.45629,86.272991 88.744329,86.082558 75.964436,95.231851 89.793115,90.027153 102.7691,90.13789 115.53607,95.324181 Z"
         sodipodi:nodetypes="ccc" />
      <path
         style="fill:#ff0000;fill-opacity:1;stroke:none;stroke-width:0.4;stroke-linecap:butt;stroke-linejoin:miter;stroke-miterlimit:4;stroke-dasharray:none;stroke-opacity:1"
         d="m 102.78148,99.037449 c 1.49249,-0.0971 2.51189,0.339462 2.1206,2.367281 -0.36135,-0.84585 -1.00413,-1.645474 -2.1206,-2.367281 z"
         id="path1276"
         sodipodi:nodetypes="ccc" />
      <path
         id="path1278"
         style="fill:#ff0000;fill-opacity:1;stroke:none;stroke-width:0.4;stroke-linecap:butt;stroke-linejoin:miter;stroke-miterlimit:4;stroke-dasharray:none;stroke-opacity:1"
         d="m 122.86737,104.65031 c 0.003,-0.46815 -0.002,-0.93695 -0.0159,-1.40615 -1.08764,14.23307 -7.61614,27.07654 -27.18309,27.09809 -19.524966,0.0215 -25.865828,-12.40783 -27.056341,-27.22464 -0.497734,15.00019 7.134361,28.66803 27.052905,28.69709 19.295596,0.0281 27.118736,-12.66374 27.202366,-27.16439 z"
         sodipodi:nodetypes="scscsss" />
      <path
         sodipodi:nodetypes="ccc"
         id="path1280"
         d="m 88.50379,98.953064 c -1.492021,-0.104062 -2.962235,0.303069 -2.58042,2.332696 0.314301,-0.99837 1.331456,-2.006559 2.58042,-2.332696 z"
         style="fill:#ff0000;fill-opacity:1;stroke:none;stroke-width:0.4;stroke-linecap:butt;stroke-linejoin:miter;stroke-miterlimit:4;stroke-dasharray:none;stroke-opacity:1" />
      <path
         style="fill:#ff0000;fill-opacity:1;stroke:none;stroke-width:0.4;stroke-linecap:butt;stroke-linejoin:miter;stroke-miterlimit:4;stroke-dasharray:none;stroke-opacity:1"
         d="m 121.44978,96.531861 c 3.85676,-9.271386 13.91439,-0.913325 1.40174,6.712299 5.43544,-4.60702 4.33642,-12.909107 -1.40174,-6.712299 z"
         id="path1282"
         sodipodi:nodetypes="ccc" />
      <path
         style="fill:#ff0000;fill-opacity:1;stroke:none;stroke-width:0.4;stroke-linecap:butt;stroke-linejoin:miter;stroke-miterlimit:4;stroke-dasharray:none;stroke-opacity:1"
         d="m 121.44978,96.531861 c -9.83499,-15.933641 -8.55725,-31.765763 0.1109,-47.53036 -4.72593,14.366131 -7.35013,29.394449 -0.1109,47.53036 z"
         id="path1284"
         sodipodi:nodetypes="ccc" />
      <path
         style="fill:#ff0000;fill-opacity:1;stroke:none;stroke-width:0.4;stroke-linecap:butt;stroke-linejoin:miter;stroke-miterlimit:4;stroke-dasharray:none;stroke-opacity:1"
         d="M 98.631053,55.326345 C 79.808608,16.533491 144.91574,17.017988 124.79591,59.639658 136.72084,18.610831 86.643878,22.760407 98.631053,55.326345 Z"
         id="path1286"
         sodipodi:nodetypes="ccc" />
      <path
         style="fill:#ff0000;fill-opacity:1;stroke:none;stroke-width:0.4;stroke-linecap:butt;stroke-linejoin:miter;stroke-miterlimit:4;stroke-dasharray:none;stroke-opacity:1"
         d="M 96.900721,27.446492 C 68.677448,-12.12498 33.080369,38.404638 70.559124,58.379163 22.622552,36.432371 74.138385,-18.481675 96.900721,27.446492 Z"
         id="path1288"
         sodipodi:nodetypes="ccc" />
      <path
         style="fill:#ff0000;fill-opacity:1;stroke:none;stroke-width:0.4;stroke-linecap:butt;stroke-linejoin:miter;stroke-miterlimit:4;stroke-dasharray:none;stroke-opacity:1"
         d="M 73.224369,16.247027 C 63.334404,20.193251 58.738687,36.296682 61.803701,42.680141 54.781067,31.097873 64.096577,16.048748 73.224369,16.247027 Z"
         id="path1290"
         sodipodi:nodetypes="ccc" />
      <path
         style="fill:#ff0000;fill-opacity:1;stroke:none;stroke-width:0.4;stroke-linecap:butt;stroke-linejoin:miter;stroke-miterlimit:4;stroke-dasharray:none;stroke-opacity:1"
         d="m 70.164138,96.420975 c -5.789809,-3.208509 -6.118916,2.639999 -1.552049,6.696625 -12.229949,-6.211872 -0.3261,-15.848883 1.552049,-6.696625 z"
         id="path1292"
         sodipodi:nodetypes="ccc" />
      <path
         style="fill:#ff0000;fill-opacity:1;stroke:none;stroke-width:0.4;stroke-linecap:butt;stroke-linejoin:miter;stroke-miterlimit:4;stroke-dasharray:none;stroke-opacity:1"
         d="m 70.164138,96.420975 c 11.677054,-17.503442 3.646549,-41.129704 0.110383,-47.306572 4.505406,16.764099 6.021262,32.873159 -0.110383,47.306572 z"
         id="path1294"
         sodipodi:nodetypes="ccc" />
      <path
         sodipodi:nodetypes="ccccc"
         id="path1296"
         d="m 108.22044,111.69706 c -5.86847,10.71821 -11.691377,7.65148 -12.512758,-0.0292 -0.237942,6.21904 -6.470717,11.89688 -12.197367,-0.0285 3.870748,4.39818 7.926745,6.39726 12.197367,0.0285 3.946717,5.76176 8.033068,5.19162 12.512758,0.0292 z"
         style="fill:#ff0000;fill-opacity:1;stroke:none;stroke-width:0.4;stroke-linecap:butt;stroke-linejoin:miter;stroke-miterlimit:4;stroke-dasharray:none;stroke-opacity:1" />
      <ellipse
         transform="matrix(-0.00218267,0.99999762,-0.99999689,-0.00249439,0,0)"
         ry="1.9885783"
         rx="4.251688"
         cy="-89.437592"
         cx="105.84666"
         id="ellipse1298"
         style="fill:#ff0000;fill-opacity:1;stroke:none;stroke-width:0.4;stroke-miterlimit:4;stroke-dasharray:none;stroke-opacity:1" />
      <ellipse
         style="fill:#ff0000;fill-opacity:1;stroke:none;stroke-width:0.4;stroke-miterlimit:4;stroke-dasharray:none;stroke-opacity:1"
         id="ellipse1300"
         cx="105.80439"
         cy="-102.37202"
         rx="4.251688"
         ry="1.9885784"
         transform="matrix(-0.00218266,0.99999762,-0.99999689,-0.00249439,0,0)" />
    </g>
    <g
       id="g928">
      <g
         id="g1312"
         style="fill:#ff0000;fill-opacity:1;stroke:#000000;stroke-width:0.4;stroke-miterlimit:4;stroke-dasharray:none;stroke-opacity:1"
         transform="translate(-212.8006,-101.29762)">
        <path
           id="path1310"
           style="fill:#ff0000;fill-opacity:1;stroke:none;stroke-width:0;stroke-linecap:butt;stroke-linejoin:miter;stroke-miterlimit:4;stroke-dasharray:none;stroke-opacity:1"
           d="m 281.56641,489.14453 c -11.4009,-0.11529 -23.03659,2.70987 -34.36914,8.83008 -51.38079,27.74846 -119.18739,95.45429 -142.91016,130.20508 -5.03025,7.36864 -2.89256,12.72209 -2.78711,18.96289 h 10 c -0.13531,-5.51543 -0.60983,-8.41832 0.60938,-13.65039 0.65955,-2.83049 3.82125,-6.88985 5.63085,-9.16407 0,0 16.16332,-20.3596 25.1875,-29.68554 16.76168,-17.32218 35.01286,-33.1899 53.57227,-48.57031 17.92717,-14.79402 49.3303,-42.82731 74.28516,-46.42969 v 54.28515 l -31.42774,11.78711 -6.07226,83.21289 h 135.64257 120.35743 l -6.07032,-83.21289 -31.42968,-11.78711 v -54.28515 c 24.95486,3.60238 56.35997,31.63567 74.28711,46.42969 18.55944,15.38041 36.80863,31.24813 53.57031,48.57031 9.02419,9.32594 25.1875,29.68554 25.1875,29.68554 1.8096,2.27422 4.97129,6.33358 5.63086,9.16407 1.21924,5.23207 0.74667,8.13496 0.61133,13.65039 h 10 c 0.10544,-6.2408 2.24314,-11.59425 -2.78711,-18.96289 -23.72278,-34.75079 -91.53133,-102.45662 -142.91211,-130.20508 -24.17617,-13.05645 -49.73231,-11.12016 -71.44532,2.38281 -4.00535,2.45144 -7.91676,5.09445 -12.14257,7.14258 -7.92084,4.1898 -14.59122,5.71802 -23.57032,5.71484 h -13.85742 c -8.9791,0.003 -15.60124,-1.62131 -23.57226,-5.71484 -4.17733,-2.14526 -8.13723,-4.69114 -12.14258,-7.14258 -11.53504,-7.17345 -24.15516,-11.08222 -37.07617,-11.21289 z m -1.4961,10.14063 h 8.21485 v 61.78711 h 146 V 499.28516 H 442.5 v 61.78711 l 33.57227,12.5 3.92773,65 H 353.28516 242.57031 l 3.92969,-65 33.57031,-12.5 z m 16.07617,0.25 c 11.50222,-0.37678 35.04593,21.78427 57.22852,21 h 15.82227 c 22.89815,0.80957 47.2458,-22.8314 58.30273,-20.89258 v 50.71484 H 295.07031 v -50.71484 c 0.34553,-0.0606 0.70514,-0.0953 1.07617,-0.10742 z"
           transform="matrix(0.26458333,0,0,0.26458333,212.8006,101.29762)" />
      </g>
      <path
         id="path1314"
         style="fill:#ff0000;fill-opacity:1;stroke:none;stroke-width:0.4;stroke-linecap:butt;stroke-linejoin:miter;stroke-miterlimit:4;stroke-dasharray:none;stroke-opacity:1"
         d="m 74.747743,152.64967 v 11.50678 l 6.766507,3.90726 6.789235,-3.90776 v -11.50628 z m 1.277964,1.33687 h 10.99984 v 1.50326 h -10.99984 z m -0.0164,3.14864 H 87.04222 v 6.19704 l -5.516457,3.18532 -5.516456,-3.18532 z" />
      <path
         style="fill:#ff0000;fill-opacity:1;stroke:none;stroke-width:0.4;stroke-linecap:butt;stroke-linejoin:miter;stroke-miterlimit:4;stroke-dasharray:none;stroke-opacity:1"
         d="m 130.77975,171.53031 3.37816,-0.0236 c 4.80111,-5.78143 10.10451,-3.00503 12.56772,-6.63822 0.16274,-0.28423 0.16536,-0.96856 0.16536,-0.96856 -4.19452,1.11574 -10.54062,1.183 -16.11124,7.6304 z"
         id="path1316"
         sodipodi:nodetypes="ccccc" />
      <path
         style="fill:#ff0000;fill-opacity:1;stroke:none;stroke-width:0.4;stroke-linecap:butt;stroke-linejoin:miter;stroke-miterlimit:4;stroke-dasharray:none;stroke-opacity:1"
         d="m 60.14841,171.65139 h -3.67496 c 0,0 -3.26358,-4.1353 -5.3788,-5.64608 -1.97473,-1.41044 -4.51077,-1.8313 -6.61492,-3.04019 -0.55453,-0.31859 -1.13558,-0.63334 -1.57021,-1.10248 -0.28166,-0.30402 -0.51602,-0.67202 -0.63477,-1.06908 -0.0703,-0.23497 -0.0334,-0.73499 -0.0334,-0.73499 0,0 2.55196,0.27138 3.77519,0.63476 2.08439,0.6192 4.13932,1.44853 5.98014,2.60587 2.07893,1.30704 3.9167,3.00362 5.57927,4.81087 0.9878,1.07376 2.57246,3.54132 2.57246,3.54132 z"
         id="path1318"
         sodipodi:nodetypes="ccsssscsssc" />
    </g>
  </g>
  <g
     sodipodi:insensitive="true"
     inkscape:label="lineart"
     inkscape:groupmode="layer"
     id="g1562"
     style="display:none">
    <g
       id="g1518"
       transform="translate(-200.40629,3.0428038)"
       style="fill:none;stroke:#000000;stroke-width:0.4;stroke-miterlimit:4;stroke-dasharray:none;stroke-opacity:1">
      <g
         id="g1516"
         style="fill:none;stroke:#000000;stroke-width:0.4;stroke-miterlimit:4;stroke-dasharray:none;stroke-opacity:1">
        <text
           xml:space="preserve"
           style="font-style:normal;font-variant:normal;font-weight:normal;font-stretch:normal;font-size:25.526px;line-height:1.25;font-family:'Cooper Black';-inkscape-font-specification:'Cooper Black, ';fill:none;fill-opacity:1;stroke:#000000;stroke-width:0.4;stroke-miterlimit:4;stroke-dasharray:none;stroke-opacity:1"
           x="340.49014"
           y="104.36442"
           id="text1502"><tspan
             id="tspan1500"
             x="340.49014"
             y="104.36442"
             style="font-style:normal;font-variant:normal;font-weight:normal;font-stretch:normal;font-family:'Cooper Black';-inkscape-font-specification:'Cooper Black, ';fill:none;fill-opacity:1;stroke:#000000;stroke-width:0.4;stroke-miterlimit:4;stroke-dasharray:none;stroke-opacity:1"
             sodipodi:role="line">69</tspan></text>
        <path
           id="path1504"
           style="fill:none;fill-opacity:1;stroke:#000000;stroke-width:0.4;stroke-miterlimit:4;stroke-dasharray:none;stroke-opacity:1"
           d="m 356.42932,70.681693 a 8.3627234,8.3627234 0 0 0 -8.36073,8.362799 8.3627234,8.3627234 0 0 0 8.36282,8.362278 8.3627234,8.3627234 0 0 0 8.36279,-8.362278 8.3627234,8.3627234 0 0 0 -8.36279,-8.362799 8.3627234,8.3627234 0 0 0 -0.002,0 z m -0.0367,6.709154 a 1.6536458,1.6536458 0 0 1 0.0388,0 1.6536458,1.6536458 0 0 1 1.65364,1.653645 1.6536458,1.6536458 0 0 1 -1.65364,1.653646 1.6536458,1.6536458 0 0 1 -1.65365,-1.653646 1.6536458,1.6536458 0 0 1 1.61489,-1.653645 z" />
        <path
           style="fill:none;fill-opacity:1;stroke:#000000;stroke-width:0.4;stroke-linecap:butt;stroke-linejoin:miter;stroke-miterlimit:4;stroke-dasharray:none;stroke-opacity:1"
           d="m 334.41444,109.42411 c 14.40763,3.70368 29.0284,4.10358 43.93972,0 z"
           id="path1506"
           sodipodi:nodetypes="ccc" />
        <path
           style="fill:none;fill-opacity:1;stroke:#000000;stroke-width:0.4;stroke-linecap:butt;stroke-linejoin:miter;stroke-miterlimit:4;stroke-dasharray:none;stroke-opacity:1"
           d="m 353.40773,120.47991 c -2.20605,-3.14825 -7.35903,-8.52744 -10.8668,-5.38616 -0.93112,1.0705 -1.19654,2.76927 -0.75595,3.96875 0.61038,1.66173 7.69705,7.80352 8.74259,5.29118 0.27659,-0.95806 -2.3368,-2.09035 -3.73439,-2.92883 -1.37198,-0.8441 -2.5848,-2.26753 -2.04108,-3.28839 2.19986,-4.13036 11.32315,6.22489 8.65563,2.34345 z"
           id="path1508"
           sodipodi:nodetypes="ccsccsc" />
        <path
           style="fill:none;fill-opacity:1;stroke:#000000;stroke-width:0.4;stroke-linecap:butt;stroke-linejoin:miter;stroke-miterlimit:4;stroke-dasharray:none;stroke-opacity:1"
           d="m 353.12426,117.4561 c 2.51588,2.83516 3.98666,2.08027 6.94531,0.23623 2.11273,-1.51824 6.00621,-2.0406 6.94531,0.0945 0.94011,3.02993 -2.62505,4.2717 -4.96093,4.72471 0,0 1.64324,0.61753 2.50409,0.75595 4.96151,0.78901 7.36965,-4.71472 5.10271,-8.12644 -1.16247,-1.7495 -3.83227,-2.27347 -5.71691,-2.03162 -1.84588,0.32916 -3.25646,1.65182 -4.58295,2.69308 -1.69854,1.21176 -4.01172,2.13049 -5.90587,1.74815 -0.11144,-0.027 -0.33076,-0.0946 -0.33076,-0.0946 z"
           id="path1510"
           sodipodi:nodetypes="cccccsccccc" />
        <path
           style="fill:none;fill-opacity:1;stroke:#000000;stroke-width:0.4;stroke-linecap:butt;stroke-linejoin:miter;stroke-miterlimit:4;stroke-dasharray:none;stroke-opacity:1"
           d="M 345.28125,64.822916 C 361.19748,53.375984 394.03457,71.751534 374.5744,105.07738 387.30728,69.582972 360.51993,60.238254 345.28125,64.822916 Z"
           id="path1512"
           sodipodi:nodetypes="ccc" />
        <path
           style="fill:none;fill-opacity:1;stroke:#000000;stroke-width:0.4;stroke-linecap:butt;stroke-linejoin:miter;stroke-miterlimit:4;stroke-dasharray:none;stroke-opacity:1"
           d="m 378.99199,67.445125 c 0,0 -0.6313,0.409754 -0.99218,0.448847 -0.52819,0.05722 -1.0824,-0.09627 -1.55914,-0.33073 -0.43611,-0.214478 -0.84366,-0.538636 -1.11033,-0.94494 -2.12229,-3.025041 1.06696,-7.396181 4.72472,-5.693265 3.48849,1.624114 3.80858,6.490835 0.96856,8.528087 -0.94831,0.680259 -2.129,0.951472 -3.21281,0.968563 -0.47659,0.0075 -1.4174,-0.188987 -1.4174,-0.188987 1.63329,-0.417649 2.79545,-1.583531 2.59861,-2.787575 z"
           id="path1514"
           sodipodi:nodetypes="caacsssccc" />
      </g>
    </g>
    <g
       id="g1548"
       transform="rotate(90.13369,253.44952,19.41827)"
       style="fill:#ff6600;stroke-width:0.4;stroke-miterlimit:4;stroke-dasharray:none">
      <path
         sodipodi:nodetypes="ccc"
         transform="scale(0.26458333)"
         d="m 1246.0234,593.96875 c -34.1026,45.73558 -34.6926,101.34136 0,149.5625 -19.7932,-52.21983 -19.4891,-101.26375 0,-149.5625 z"
         style="fill:none;fill-opacity:1;stroke:#000000;stroke-width:1.51181;stroke-linecap:butt;stroke-linejoin:miter;stroke-miterlimit:4;stroke-dasharray:none;stroke-opacity:1"
         id="path1520" />
      <path
         sodipodi:nodetypes="ccc"
         id="path1522"
         d="m 333.42004,169.90012 c -0.10058,-1.49226 0.3336,-2.51267 2.36233,-2.12612 -0.84501,0.36333 -1.64313,1.00797 -2.36233,2.12612 z"
         style="fill:none;fill-opacity:1;stroke:#000000;stroke-width:0.4;stroke-linecap:butt;stroke-linejoin:miter;stroke-miterlimit:4;stroke-dasharray:none;stroke-opacity:1" />
      <path
         sodipodi:nodetypes="scscsss"
         transform="scale(0.26458333)"
         d="m 1281.207,566.17773 c -1.7694,-0.006 -3.5412,0.0176 -5.3144,0.0723 53.8037,3.98525 102.4034,28.54655 102.6574,102.5 0.2534,73.79476 -46.6675,97.86977 -102.6574,102.5 56.6979,1.74891 108.2884,-27.21726 108.2226,-102.5 -0.064,-72.92829 -48.102,-102.38405 -102.9082,-102.57227 z"
         style="fill:none;fill-opacity:1;stroke:#000000;stroke-width:1.51181;stroke-linecap:butt;stroke-linejoin:miter;stroke-miterlimit:4;stroke-dasharray:none;stroke-opacity:1"
         id="path1524" />
      <path
         style="fill:none;fill-opacity:1;stroke:#000000;stroke-width:0.4;stroke-linecap:butt;stroke-linejoin:miter;stroke-miterlimit:4;stroke-dasharray:none;stroke-opacity:1"
         d="m 333.36897,184.17797 c -0.10058,1.49226 0.30998,2.96152 2.33871,2.57497 -0.9991,-0.31197 -2.00966,-1.32677 -2.33871,-2.57497 z"
         id="path1526"
         sodipodi:nodetypes="ccc" />
      <path
         sodipodi:nodetypes="ccc"
         id="path1528"
         d="m 330.8709,151.23772 c -9.28036,-3.83512 -0.94579,-13.91222 6.70901,-1.4174 -4.61969,-5.42467 -12.91919,-4.30629 -6.70901,1.4174 z"
         style="fill:none;fill-opacity:1;stroke:#000000;stroke-width:0.4;stroke-linecap:butt;stroke-linejoin:miter;stroke-miterlimit:4;stroke-dasharray:none;stroke-opacity:1" />
      <path
         sodipodi:nodetypes="ccc"
         id="path1530"
         d="m 330.8709,151.23772 c -15.91065,9.87214 -31.74571,8.63135 -47.53049,0 14.37712,4.6924 29.41152,7.28153 47.53049,0 z"
         style="fill:none;fill-opacity:1;stroke:#000000;stroke-width:0.4;stroke-linecap:butt;stroke-linejoin:miter;stroke-miterlimit:4;stroke-dasharray:none;stroke-opacity:1" />
      <path
         sodipodi:nodetypes="ccc"
         id="path1532"
         d="m 289.71874,174.15253 c -38.74883,18.91291 -38.41625,-46.19517 4.25225,-26.17485 -41.05654,-11.82916 -36.79013,38.23798 -4.25225,26.17485 z"
         style="fill:none;fill-opacity:1;stroke:#000000;stroke-width:0.4;stroke-linecap:butt;stroke-linejoin:miter;stroke-miterlimit:4;stroke-dasharray:none;stroke-opacity:1" />
      <path
         sodipodi:nodetypes="ccc"
         id="path1534"
         d="m 261.843,175.94791 c -39.50551,28.31553 11.10703,63.79461 30.99405,26.26935 -21.83488,47.98765 -76.86898,-3.39991 -30.99405,-26.26935 z"
         style="fill:none;fill-opacity:1;stroke:#000000;stroke-width:0.4;stroke-linecap:butt;stroke-linejoin:miter;stroke-miterlimit:4;stroke-dasharray:none;stroke-opacity:1" />
      <path
         sodipodi:nodetypes="ccc"
         id="path1536"
         d="m 250.69881,199.65033 c 3.96929,9.88073 20.0834,14.43886 26.45969,11.35896 -11.56585,7.04964 -26.63667,-2.23073 -26.45969,-11.35896 z"
         style="fill:none;fill-opacity:1;stroke:#000000;stroke-width:0.4;stroke-linecap:butt;stroke-linejoin:miter;stroke-miterlimit:4;stroke-dasharray:none;stroke-opacity:1" />
      <path
         sodipodi:nodetypes="ccc"
         id="path1538"
         d="m 330.87968,202.52348 c -3.19499,5.79728 2.65427,6.11274 6.70023,1.53642 -6.18332,12.24441 -15.84808,0.36308 -6.70023,-1.53642 z"
         style="fill:none;fill-opacity:1;stroke:#000000;stroke-width:0.4;stroke-linecap:butt;stroke-linejoin:miter;stroke-miterlimit:4;stroke-dasharray:none;stroke-opacity:1" />
      <path
         sodipodi:nodetypes="ccc"
         id="path1540"
         d="m 330.87968,202.52348 c -17.53064,-11.63618 -41.1381,-3.55057 -47.3067,0 16.75354,-4.54451 32.85902,-6.09795 47.3067,0 z"
         style="fill:none;fill-opacity:1;stroke:#000000;stroke-width:0.4;stroke-linecap:butt;stroke-linejoin:miter;stroke-miterlimit:4;stroke-dasharray:none;stroke-opacity:1" />
      <path
         style="fill:none;fill-opacity:1;stroke:#000000;stroke-width:0.4;stroke-linecap:butt;stroke-linejoin:miter;stroke-miterlimit:4;stroke-dasharray:none;stroke-opacity:1"
         d="m 346.06693,164.43164 c 10.73187,5.84344 7.67873,11.67349 0,12.51279 6.21958,0.22343 11.91195,6.44294 0,12.1974 4.38914,-3.881 6.37875,-7.94165 0,-12.1974 5.75254,-3.96015 5.17286,-8.04516 0,-12.51279 z"
         id="path1542"
         sodipodi:nodetypes="ccccc" />
      <ellipse
         style="fill:none;fill-opacity:1;stroke:#000000;stroke-width:0.4;stroke-miterlimit:4;stroke-dasharray:none;stroke-opacity:1"
         id="ellipse1544"
         cx="340.51331"
         cy="183.51018"
         rx="4.251688"
         ry="1.9885783"
         transform="matrix(0.99999999,-1.5066392e-4,-1.6106378e-4,0.99999999,0,0)" />
      <ellipse
         transform="matrix(0.99999999,-1.5066895e-4,-1.6106191e-4,0.99999999,0,0)"
         ry="1.9885784"
         rx="4.251688"
         cy="170.57574"
         cx="340.47104"
         id="ellipse1546"
         style="fill:none;fill-opacity:1;stroke:#000000;stroke-width:0.4;stroke-miterlimit:4;stroke-dasharray:none;stroke-opacity:1" />
    </g>
    <g
       id="g1560"
       transform="translate(-212.8006,-101.29762)"
       style="fill:none;stroke:#000000;stroke-width:0.5;stroke-miterlimit:4;stroke-dasharray:none;stroke-opacity:1">
      <g
         style="fill:none;fill-opacity:1;stroke:#000100;stroke-width:0.5;stroke-miterlimit:4;stroke-dasharray:none;stroke-opacity:1"
         id="g1552">
        <path
           transform="matrix(0.26458333,0,0,0.26458333,212.8006,101.29762)"
           d="m 281.56641,489.14453 c -11.4009,-0.11529 -23.03659,2.70987 -34.36914,8.83008 -51.38079,27.74846 -119.18739,95.45429 -142.91016,130.20508 -5.03025,7.36864 -2.89256,12.72209 -2.78711,18.96289 h 10 c -0.13531,-5.51543 -0.60983,-8.41832 0.60938,-13.65039 0.65955,-2.83049 3.82125,-6.88985 5.63085,-9.16407 0,0 16.16332,-20.3596 25.1875,-29.68554 16.76168,-17.32218 35.01286,-33.1899 53.57227,-48.57031 17.92717,-14.79402 49.3303,-42.82731 74.28516,-46.42969 v 54.28515 l -31.42774,11.78711 -6.07226,83.21289 h 135.64257 120.35743 l -6.07032,-83.21289 -31.42968,-11.78711 v -54.28515 c 24.95486,3.60238 56.35997,31.63567 74.28711,46.42969 18.55944,15.38041 36.80863,31.24813 53.57031,48.57031 9.02419,9.32594 25.1875,29.68554 25.1875,29.68554 1.8096,2.27422 4.97129,6.33358 5.63086,9.16407 1.21924,5.23207 0.74667,8.13496 0.61133,13.65039 h 10 c 0.10544,-6.2408 2.24314,-11.59425 -2.78711,-18.96289 -23.72278,-34.75079 -91.53133,-102.45662 -142.91211,-130.20508 -24.17617,-13.05645 -49.73231,-11.12016 -71.44532,2.38281 -4.00535,2.45144 -7.91676,5.09445 -12.14257,7.14258 -7.92084,4.1898 -14.59122,5.71802 -23.57032,5.71484 h -13.85742 c -8.9791,0.003 -15.60124,-1.62131 -23.57226,-5.71484 -4.17733,-2.14526 -8.13723,-4.69114 -12.14258,-7.14258 -11.53504,-7.17345 -24.15516,-11.08222 -37.07617,-11.21289 z m -1.4961,10.14063 h 8.21485 v 61.78711 h 146 V 499.28516 H 442.5 v 61.78711 l 33.57227,12.5 3.92773,65 H 353.28516 242.57031 l 3.92969,-65 33.57031,-12.5 z m 16.07617,0.25 c 11.50222,-0.37678 35.04593,21.78427 57.22852,21 h 15.82227 c 22.89815,0.80957 47.2458,-22.8314 58.30273,-20.89258 v 50.71484 H 295.07031 v -50.71484 c 0.34553,-0.0606 0.70514,-0.0953 1.07617,-0.10742 z"
           style="fill:none;fill-opacity:1;stroke:#000100;stroke-width:1.88976;stroke-linecap:butt;stroke-linejoin:miter;stroke-miterlimit:4;stroke-dasharray:none;stroke-opacity:1"
           id="path1550" />
      </g>
      <path
         transform="scale(0.26458333)"
         d="m 1086.7969,959.80078 v 43.49022 l 25.5742,14.7676 25.6601,-14.7695 v -43.48832 z m 4.8301,5.05274 h 41.5742 v 5.68164 h -41.5742 z m -0.062,11.90039 h 41.6992 v 23.42189 l -20.8496,12.039 -20.8496,-12.039 z"
         style="fill:none;fill-opacity:1;stroke:#000000;stroke-width:1.88976;stroke-linecap:butt;stroke-linejoin:miter;stroke-miterlimit:4;stroke-dasharray:none;stroke-opacity:1"
         id="path1554" />
      <path
         sodipodi:nodetypes="ccccc"
         id="path1556"
         d="m 343.58035,272.82793 3.37816,-0.0236 c 4.80111,-5.78143 10.10451,-3.00503 12.56772,-6.63822 0.16274,-0.28423 0.16536,-0.96856 0.16536,-0.96856 -4.19452,1.11574 -10.54062,1.183 -16.11124,7.6304 z"
         style="fill:none;fill-opacity:1;stroke:#000000;stroke-width:0.5;stroke-linecap:butt;stroke-linejoin:miter;stroke-miterlimit:4;stroke-dasharray:none;stroke-opacity:1" />
      <path
         sodipodi:nodetypes="ccsssscsssc"
         id="path1558"
         d="m 272.94901,272.94901 h -3.67496 c 0,0 -3.26358,-4.1353 -5.3788,-5.64608 -1.97473,-1.41044 -4.51077,-1.8313 -6.61492,-3.04019 -0.55453,-0.31859 -1.13558,-0.63334 -1.57021,-1.10248 -0.28166,-0.30402 -0.51602,-0.67202 -0.63477,-1.06908 -0.0703,-0.23497 -0.0334,-0.73499 -0.0334,-0.73499 0,0 2.55196,0.27138 3.77519,0.63476 2.08439,0.6192 4.13932,1.44853 5.98014,2.60587 2.07893,1.30704 3.9167,3.00362 5.57927,4.81087 0.9878,1.07376 2.57246,3.54132 2.57246,3.54132 z"
         style="fill:none;fill-opacity:1;stroke:#000000;stroke-width:0.5;stroke-linecap:butt;stroke-linejoin:miter;stroke-miterlimit:4;stroke-dasharray:none;stroke-opacity:1" />
    </g>
  </g>
</svg>
